<?xml version="1.0" encoding="UTF-8"?>
<svg id="Camada_1" data-name="Camada 1" xmlns="http://www.w3.org/2000/svg" viewBox="0 0 652.62 596.22">
  <path d="M193.49,462.82s168.52-139.29,265.45-331.14c-166.16,136.35-265.45,331.14-265.45,331.14ZM229.66,417.7c72.85-125.18,196.21-244.77,196.21-244.77,0,0-89.88,146.43-196.21,244.77Z"/>
  <path d="M652.62,0h-22.86c-.18.3-170,.26-170,.26h-23.57c-37.74,44.01-74.6,89.32-109.88,134.35C291.03,89.59,254.17,44.28,216.43.27h-23.57S23.04.3,22.86,0H0l.6.72s.04.07.11.18h-.25l1.73,2.37c11.91,19.03,90.02,142.88,200.55,295.93C83.34,464.69,2.17,595.49,2.17,595.49l-.6.72h22.86c.15-.24,170-.26,170-.26h23.57c37.19-43.36,73.51-87.97,108.31-132.34,34.8,44.37,71.12,88.98,108.31,132.35h23.57s169.86.02,170,.27h22.86l-.6-.72s-81.17-130.81-200.57-296.3C560.4,146.16,638.51,22.31,650.42,3.28l1.73-2.37h-.25c.07-.11.11-.18.11-.18l.6-.72ZM607.39,17.73l-96.83,49.59-.03.04s.02-.05.02-.07c-1.58.96-3.14,1.92-4.7,2.88l-52.44-52.45h153.98ZM496.68,520.9l-54.32,54.32-10.36-96.81c28.17,21.03,51.03,34.86,64.68,42.49ZM336.53,370.64c4.32-4.88,8.65-9.87,12.98-15.01,59.63,66.35,107.79,106.17,107.79,106.17,0,0-30.06-58.96-84.75-134.7,4.17-5.4,8.33-10.92,12.47-16.57,37.46,51.93,72.65,113.34,98.67,184.18-58.04-37.31-106.73-80.39-147.16-124.08ZM217.56,480.35l-10.34,96.62-54.36-54.36c13.29-7.36,36.22-21.09,64.7-42.26ZM227.34,472.95c19.43-14.96,41.04-33.16,63.67-54.91,7.43,9.71,14.97,19.46,22.55,29.23-42.63,54.69-77.71,98.12-98.51,123.59l12.28-97.91ZM305.44,403.84c6.75-6.82,13.57-13.95,20.43-21.39,7.04,7.62,14.03,14.89,20.96,21.85-6.99,9.1-13.83,17.96-20.52,26.59-6.8-8.78-13.76-17.79-20.87-27.05ZM366.58,334.76c19.42,26.18,38.26,53.91,54.56,81.93-22.88-21.17-45-44.56-65.63-68.24,3.69-4.47,7.38-9.03,11.06-13.69ZM394.74,297.02c4.77-6.78,9.51-13.73,14.22-20.84,5.64,7.58,11.32,15.27,17.03,23.01-5.08,6.89-10.14,13.73-15.17,20.49-5.11-7.46-10.47-15.02-16.08-22.65ZM167.1,495.73C262.95,234.78,483.22,101.36,483.27,101.33c-.04.13-82.34,244.1-316.17,394.4ZM326.31,167.36c6.66,8.6,13.47,17.43,20.42,26.48-7.18,7.02-14.12,14.05-20.84,21.07-6.55-6.88-13.33-13.76-20.33-20.63,7.06-9.21,13.99-18.18,20.75-26.92ZM315.43,226.06c-4.18,4.53-8.26,9.06-12.25,13.57-32.61-37.34-69.88-74.97-111.31-108.97,25.38,50.23,55.66,96.85,86.55,138.32-4.08,5.07-8.05,10.12-11.91,15.14-70.61-99.76-98.95-183.75-98.97-183.82.03.02,69.8,42.29,147.89,125.75ZM285.38,260.45c-37.04-50.4-60.45-88.53-60.45-88.53,0,0,31.03,30.08,71.14,75.85-3.65,4.24-7.2,8.46-10.69,12.68ZM256.79,297.04c-5.42,7.35-10.61,14.64-15.57,21.84-4.84-6.51-9.71-13.08-14.59-19.71,5.5-7.47,10.99-14.88,16.43-22.2,4.55,6.84,9.13,13.54,13.74,20.06ZM443.98,19.41l55.02,55.02c-23.35,14.63-45.24,29.75-65.76,45.2l10.73-100.21s0,0,0,0ZM435.62,29.65l-12.23,97.5c-22.33,17.29-42.97,34.95-62.06,52.75-7.34-9.61-14.79-19.26-22.29-28.92,41.02-52.65,75.19-95.07,96.58-121.32ZM313.57,150.97c-7.59,9.78-15.13,19.54-22.56,29.26,3.89,3.67,7.8,7.46,11.74,11.31-22.05-21.45-46.32-42.78-73.02-63.59l-12.25-97.7c21.42,26.3,55.38,68.48,96.08,120.72ZM209.08,19.95l10.74,100.36c-20.94-15.87-43.33-31.39-67.25-46.41l55.36-55.36c.38.46.76.93,1.15,1.41ZM197.65,17.73l-51.94,51.93c-.13-.08-.25-.16-.38-.24L48.85,17.73h148.8ZM44.01,34.17l92.07,67.08,23.96,105.82c-40.24-56.91-80.01-115.63-116.03-172.9ZM173.48,225.99l-31.25-133.65L42.04,22.29l101.29,52.95c24.74,70.79,55.39,131.87,88.36,184.19-5.77,7.86-11.47,15.66-17.1,23.4-13.63-18.61-27.38-37.59-41.12-56.84ZM229.65,336.15c-55.66,85.39-79.21,156.56-86.61,182.53l-102.61,53.64,100.19-70.05,29.14-124.59c14.97-21.05,29.97-41.82,44.84-62.13,4.96,6.82,9.98,13.69,15.06,20.6ZM50.17,554.77c33.22-52.47,69.46-106.04,106.21-158.21l-21.92,96.8-84.3,61.41ZM43.75,578.67l96.88-49.62h.01c.72-.36,2.42-1.2,5.01-2.55l52.17,52.17H43.75ZM361.28,418.46c21.62,20.65,42.27,38.07,60.94,52.52l12.02,95.84c-21.11-25.9-54.75-67.66-95.2-119.54,7.48-9.63,14.91-19.24,22.24-28.81ZM450.01,578.67l53.85-53.85c4.11,2.18,6.44,3.29,6.68,3.41,0,0,0-.01,0-.02,0,0,.02,0,.02,0,0-.02-.02-.07-.03-.11l98.74,50.57h-159.25ZM602.95,555.6l-87.84-63.99-22.76-100.53c38.27,54.17,76.08,109.95,110.6,164.53ZM478.96,372.21l30,128.31,100.19,70.05-101.43-53.02c-7.4-25.89-30.67-96.12-85.38-180.57,5.29-7.2,10.51-14.34,15.67-21.43,13.58,18.55,27.27,37.48,40.95,56.66ZM420.3,258.6c-.51.81-1.02,1.6-1.53,2.4,32.76-51.9,63.24-112.45,87.92-182.54l104.07-54.4-100.19,70.04-30.55,130.63c-14.04,19.68-28.09,39.09-42.02,58.1-5.82-8.01-11.72-16.09-17.71-24.23ZM414.48,267.72c.09-.14.18-.27.26-.41-.09.14-.18.27-.26.41ZM606.41,37.68c-35.17,55.74-73.84,112.8-112.96,168.16l23.29-102.83,89.68-65.33Z"/>
</svg>